<svg width="186" height="61" viewBox="0 0 186 61" fill="none" xmlns="http://www.w3.org/2000/svg">
  <g clip-path="url(#clip0_4435_237)">
    <path d="M60.4277 30.1622C60.4277 46.8202 46.9004 60.3243 30.2138 60.3243C13.5273 60.3243 0 46.8202 0 30.1622C0 13.5041 13.5273 0 30.2138 0C46.9004 0 60.4277 13.5041 60.4277 30.1622Z" fill="#FFC700"/>
    <path d="M42.2413 18.2031L34.7919 45.9573L14.4395 25.6398L42.2413 18.2031Z" fill="white"/>
    <path d="M117.371 37.7199V47.9792H110.522V43.2108H84.6504V17.5625H92.0423V37.7199H104.58V17.5625H111.972V37.7199H117.371Z" fill="currentColor"/>
    <path d="M118.625 17.5625H126.017V43.2108H118.625V17.5625Z" fill="currentColor"/>
    <path d="M156.433 43.2108H149.041V23.0534H139.874V29.5558C139.874 34.3724 139.089 37.9125 137.518 40.1764C135.949 42.4402 133.568 43.5721 130.38 43.5721C129.341 43.5721 128.436 43.4877 127.662 43.3192V37.6476C128.097 37.6958 128.556 37.7199 129.039 37.7199C131.576 37.7199 132.844 35.2875 132.844 30.4228V17.5625H156.433V43.2108Z" fill="currentColor"/>
    <path d="M176.724 26.0878C178.608 26.0878 180.25 26.4611 181.651 27.2076C183.052 27.9543 184.127 28.9778 184.876 30.2782C185.625 31.5787 185.999 33.0358 185.999 34.6493C185.999 36.2629 185.625 37.7199 184.876 39.0204C184.127 40.3208 183.052 41.3444 181.651 42.091C180.25 42.8375 178.608 43.2108 176.724 43.2108H158.605V17.5625H165.997V26.0878H176.724ZM178.571 34.4326C178.571 33.5174 178.233 32.819 177.556 32.3374C176.905 31.8316 176.011 31.5787 174.875 31.5787H165.997V37.7199H174.875C176.035 37.7199 176.94 37.4791 177.593 36.9974C178.244 36.4916 178.571 35.7812 178.571 34.866V34.4326Z" fill="currentColor"/>
  </g>
  <defs>
    <clipPath id="clip0_4435_237">
      <rect width="186" height="60.3243" fill="white"/>
    </clipPath>
  </defs>
</svg>
